{"asset":{"version":"2.0","generator":"Blockbench 4.12.6 glTF exporter"},"scenes":[{"nodes":[17],"name":"blockbench_export"}],"scene":0,"nodes":[{"translation":[0,-0.0625,0],"name":"pot","mesh":0},{"translation":[0,0.0625,0],"name":"dirt","mesh":1},{"translation":[0,0.296875,0],"name":"cactus","mesh":2},{"translation":[0.0625,-0.09375,-0.0625],"name":"spine"},{"rotation":[-0.4999999999999996,-0.4999999999999994,-0.5000000000000003,0.5000000000000007],"translation":[0.0625,0,-0.0625],"name":"spine","mesh":3},{"rotation":[-0.7071067811865475,0,0,0.7071067811865476],"translation":[0,-0.1875,-0.125],"name":"spine","mesh":4},{"rotation":[-5.801741961193503e-17,-0.7071067811865468,-0.7071067811865482,2.857818601161433e-17],"translation":[0,-0.1875,0],"name":"spine","mesh":5},{"rotation":[-0.4999999999999996,-0.4999999999999994,-0.5000000000000003,0.5000000000000007],"translation":[0.0625,-0.1875,-0.0625],"name":"spine","mesh":6},{"rotation":[-0.4999999999999996,0.4999999999999994,0.5000000000000003,0.5000000000000007],"translation":[-0.0625,-0.1875,-0.0625],"name":"spine","mesh":7},{"rotation":[-0.6532814824381877,-0.27059805007309834,-0.2705980500730986,0.6532814824381887],"translation":[0.040625,-0.09375,-0.103125],"name":"spine","mesh":8},{"rotation":[-0.2705980500730983,0.6532814824381876,0.653281482438189,0.27059805007309884],"translation":[-0.040625,-0.09375,-0.021875],"name":"spine","mesh":9},{"rotation":[-0.2705980500730984,-0.6532814824381878,-0.6532814824381886,0.2705980500730987],"translation":[0.040625,-0.09375,-0.021875],"name":"spine","mesh":10},{"rotation":[-0.6532814824381876,0.27059805007309823,0.2705980500730988,0.653281482438189],"translation":[-0.040625,-0.09375,-0.103125],"name":"spine","mesh":11},{"rotation":[-0.4999999999999996,0.4999999999999994,0.5000000000000003,0.5000000000000007],"translation":[-0.0625,0,-0.0625],"name":"spine","mesh":12},{"rotation":[-0.7071067811865475,0,0,0.7071067811865476],"translation":[0,0,-0.125],"name":"spine","mesh":13},{"rotation":[-5.801741961193503e-17,-0.7071067811865468,-0.7071067811865482,2.857818601161433e-17],"name":"spine","mesh":14},{"translation":[0,0.546875,0.0625],"name":"spines","children":[3,4,5,6,7,8,9,10,11,12,13,14,15]},{"children":[0,1,2,16]}],"bufferViews":[{"buffer":0,"byteOffset":0,"byteLength":3744,"target":34962,"byteStride":12},{"buffer":0,"byteOffset":3744,"byteLength":3744,"target":34962,"byteStride":12},{"buffer":0,"byteOffset":7488,"byteLength":2496,"target":34962,"byteStride":8},{"buffer":0,"byteOffset":9984,"byteLength":864,"target":34963},{"buffer":0,"byteOffset":10848,"byteLength":1248,"target":34962,"byteStride":12},{"buffer":0,"byteOffset":12096,"byteLength":1248,"target":34962,"byteStride":12},{"buffer":0,"byteOffset":13344,"byteLength":832,"target":34962,"byteStride":8},{"buffer":0,"byteOffset":14176,"byteLength":276,"target":34963},{"buffer":0,"byteOffset":14452,"byteLength":1152,"target":34962,"byteStride":12},{"buffer":0,"byteOffset":15604,"byteLength":1152,"target":34962,"byteStride":12},{"buffer":0,"byteOffset":16756,"byteLength":768,"target":34962,"byteStride":8},{"buffer":0,"byteOffset":17524,"byteLength":264,"target":34963},{"buffer":0,"byteOffset":17788,"byteLength":192,"target":34962,"byteStride":12},{"buffer":0,"byteOffset":17980,"byteLength":192,"target":34962,"byteStride":12},{"buffer":0,"byteOffset":18172,"byteLength":128,"target":34962,"byteStride":8},{"buffer":0,"byteOffset":18300,"byteLength":36,"target":34963},{"buffer":0,"byteOffset":18336,"byteLength":192,"target":34962,"byteStride":12},{"buffer":0,"byteOffset":18528,"byteLength":192,"target":34962,"byteStride":12},{"buffer":0,"byteOffset":18720,"byteLength":128,"target":34962,"byteStride":8},{"buffer":0,"byteOffset":18848,"byteLength":36,"target":34963},{"buffer":0,"byteOffset":18884,"byteLength":192,"target":34962,"byteStride":12},{"buffer":0,"byteOffset":19076,"byteLength":192,"target":34962,"byteStride":12},{"buffer":0,"byteOffset":19268,"byteLength":128,"target":34962,"byteStride":8},{"buffer":0,"byteOffset":19396,"byteLength":36,"target":34963},{"buffer":0,"byteOffset":19432,"byteLength":192,"target":34962,"byteStride":12},{"buffer":0,"byteOffset":19624,"byteLength":192,"target":34962,"byteStride":12},{"buffer":0,"byteOffset":19816,"byteLength":128,"target":34962,"byteStride":8},{"buffer":0,"byteOffset":19944,"byteLength":36,"target":34963},{"buffer":0,"byteOffset":19980,"byteLength":192,"target":34962,"byteStride":12},{"buffer":0,"byteOffset":20172,"byteLength":192,"target":34962,"byteStride":12},{"buffer":0,"byteOffset":20364,"byteLength":128,"target":34962,"byteStride":8},{"buffer":0,"byteOffset":20492,"byteLength":36,"target":34963},{"buffer":0,"byteOffset":20528,"byteLength":192,"target":34962,"byteStride":12},{"buffer":0,"byteOffset":20720,"byteLength":192,"target":34962,"byteStride":12},{"buffer":0,"byteOffset":20912,"byteLength":128,"target":34962,"byteStride":8},{"buffer":0,"byteOffset":21040,"byteLength":36,"target":34963},{"buffer":0,"byteOffset":21076,"byteLength":192,"target":34962,"byteStride":12},{"buffer":0,"byteOffset":21268,"byteLength":192,"target":34962,"byteStride":12},{"buffer":0,"byteOffset":21460,"byteLength":128,"target":34962,"byteStride":8},{"buffer":0,"byteOffset":21588,"byteLength":36,"target":34963},{"buffer":0,"byteOffset":21624,"byteLength":192,"target":34962,"byteStride":12},{"buffer":0,"byteOffset":21816,"byteLength":192,"target":34962,"byteStride":12},{"buffer":0,"byteOffset":22008,"byteLength":128,"target":34962,"byteStride":8},{"buffer":0,"byteOffset":22136,"byteLength":36,"target":34963},{"buffer":0,"byteOffset":22172,"byteLength":192,"target":34962,"byteStride":12},{"buffer":0,"byteOffset":22364,"byteLength":192,"target":34962,"byteStride":12},{"buffer":0,"byteOffset":22556,"byteLength":128,"target":34962,"byteStride":8},{"buffer":0,"byteOffset":22684,"byteLength":36,"target":34963},{"buffer":0,"byteOffset":22720,"byteLength":192,"target":34962,"byteStride":12},{"buffer":0,"byteOffset":22912,"byteLength":192,"target":34962,"byteStride":12},{"buffer":0,"byteOffset":23104,"byteLength":128,"target":34962,"byteStride":8},{"buffer":0,"byteOffset":23232,"byteLength":36,"target":34963},{"buffer":0,"byteOffset":23268,"byteLength":192,"target":34962,"byteStride":12},{"buffer":0,"byteOffset":23460,"byteLength":192,"target":34962,"byteStride":12},{"buffer":0,"byteOffset":23652,"byteLength":128,"target":34962,"byteStride":8},{"buffer":0,"byteOffset":23780,"byteLength":36,"target":34963},{"buffer":0,"byteOffset":23816,"byteLength":192,"target":34962,"byteStride":12},{"buffer":0,"byteOffset":24008,"byteLength":192,"target":34962,"byteStride":12},{"buffer":0,"byteOffset":24200,"byteLength":128,"target":34962,"byteStride":8},{"buffer":0,"byteOffset":24328,"byteLength":36,"target":34963}],"buffers":[{"byteLength":24364,"uri":"data:application/octet-stream;base64,"}],"accessors":[{"bufferView":0,"componentType":5126,"count":312,"max":[0.1875,0.375,0.1875],"min":[-0.1875,0.0625,-0.1875],"type":"VEC3"},{"bufferView":1,"componentType":5126,"count":312,"max":[1,1,1],"min":[-1,-1,-1],"type":"VEC3"},{"bufferView":2,"componentType":5126,"count":312,"max":[0.7472312450408936,0.659443736076355],"min":[0,0],"type":"VEC2"},{"bufferView":3,"componentType":5123,"count":432,"max":[311],"min":[0],"type":"SCALAR"},{"bufferView":4,"componentType":5126,"count":104,"max":[0.15625,0.21875,0.15625],"min":[-0.15625,0.0625,-0.15625],"type":"VEC3"},{"bufferView":5,"componentType":5126,"count":104,"max":[0.9805806875228882,1,0.9805806875228882],"min":[-0.9805806875228882,-1,-0.9805806875228882],"type":"VEC3"},{"bufferView":6,"componentType":5126,"count":104,"max":[0.968894898891449,0.6875],"min":[0,0],"type":"VEC2"},{"bufferView":7,"componentType":5123,"count":138,"max":[103],"min":[0],"type":"SCALAR"},{"bufferView":8,"componentType":5126,"count":96,"max":[0.09375,0.359375,0.09375],"min":[-0.09375,-0.125,-0.09375],"type":"VEC3"},{"bufferView":9,"componentType":5126,"count":96,"max":[1,1,1],"min":[-1,-1,-1],"type":"VEC3"},{"bufferView":10,"componentType":5126,"count":96,"max":[0.875,0.8125],"min":[0,0],"type":"VEC2"},{"bufferView":11,"componentType":5123,"count":132,"max":[95],"min":[0],"type":"SCALAR"},{"bufferView":12,"componentType":5126,"count":16,"max":[0.046875,0.0625,0.046875],"min":[-0.046875,0,-0.046875],"type":"VEC3"},{"bufferView":13,"componentType":5126,"count":16,"max":[0.800000011920929,0.6000000238418579,0.800000011920929],"min":[-0.800000011920929,-1,-0.800000011920929],"type":"VEC3"},{"bufferView":14,"componentType":5126,"count":16,"max":[0.3359375,0.3203125],"min":[0,0],"type":"VEC2"},{"bufferView":15,"componentType":5123,"count":18,"max":[15],"min":[0],"type":"SCALAR"},{"bufferView":16,"componentType":5126,"count":16,"max":[0.046875,0.0625,0.046875],"min":[-0.046875,0,-0.046875],"type":"VEC3"},{"bufferView":17,"componentType":5126,"count":16,"max":[0.800000011920929,0.6000000238418579,0.800000011920929],"min":[-0.800000011920929,-1,-0.800000011920929],"type":"VEC3"},{"bufferView":18,"componentType":5126,"count":16,"max":[0.4296875,0.4140625],"min":[0,0],"type":"VEC2"},{"bufferView":19,"componentType":5123,"count":18,"max":[15],"min":[0],"type":"SCALAR"},{"bufferView":20,"componentType":5126,"count":16,"max":[0.046875,0.0625,0.046875],"min":[-0.046875,0,-0.046875],"type":"VEC3"},{"bufferView":21,"componentType":5126,"count":16,"max":[0.800000011920929,0.6000000238418579,0.800000011920929],"min":[-0.800000011920929,-1,-0.800000011920929],"type":"VEC3"},{"bufferView":22,"componentType":5126,"count":16,"max":[0.4296875,0.4140625],"min":[0.09375,0],"type":"VEC2"},{"bufferView":23,"componentType":5123,"count":18,"max":[15],"min":[0],"type":"SCALAR"},{"bufferView":24,"componentType":5126,"count":16,"max":[0.046875,0.0625,0.046875],"min":[-0.046875,0,-0.046875],"type":"VEC3"},{"bufferView":25,"componentType":5126,"count":16,"max":[0.800000011920929,0.6000000238418579,0.800000011920929],"min":[-0.800000011920929,-1,-0.800000011920929],"type":"VEC3"},{"bufferView":26,"componentType":5126,"count":16,"max":[0.5234375,0.5078125],"min":[0.0078125,0],"type":"VEC2"},{"bufferView":27,"componentType":5123,"count":18,"max":[15],"min":[0],"type":"SCALAR"},{"bufferView":28,"componentType":5126,"count":16,"max":[0.046875,0.0625,0.046875],"min":[-0.046875,0,-0.046875],"type":"VEC3"},{"bufferView":29,"componentType":5126,"count":16,"max":[0.800000011920929,0.6000000238418579,0.800000011920929],"min":[-0.800000011920929,-1,-0.800000011920929],"type":"VEC3"},{"bufferView":30,"componentType":5126,"count":16,"max":[0.5234375,0.5078125],"min":[0,0.09375],"type":"VEC2"},{"bufferView":31,"componentType":5123,"count":18,"max":[15],"min":[0],"type":"SCALAR"},{"bufferView":32,"componentType":5126,"count":16,"max":[0.046875,0.0625,0.046875],"min":[-0.046875,0,-0.046875],"type":"VEC3"},{"bufferView":33,"componentType":5126,"count":16,"max":[0.800000011920929,0.6000000238418579,0.800000011920929],"min":[-0.800000011920929,-1,-0.800000011920929],"type":"VEC3"},{"bufferView":34,"componentType":5126,"count":16,"max":[0.5234375,0.5078125],"min":[0.1875,0],"type":"VEC2"},{"bufferView":35,"componentType":5123,"count":18,"max":[15],"min":[0],"type":"SCALAR"},{"bufferView":36,"componentType":5126,"count":16,"max":[0.046875,0.0625,0.046875],"min":[-0.046875,0,-0.046875],"type":"VEC3"},{"bufferView":37,"componentType":5126,"count":16,"max":[0.800000011920929,0.6000000238418579,0.800000011920929],"min":[-0.800000011920929,-1,-0.800000011920929],"type":"VEC3"},{"bufferView":38,"componentType":5126,"count":16,"max":[0.6171875,0.6015625],"min":[0.0078125,0],"type":"VEC2"},{"bufferView":39,"componentType":5123,"count":18,"max":[15],"min":[0],"type":"SCALAR"},{"bufferView":40,"componentType":5126,"count":16,"max":[0.046875,0.0625,0.046875],"min":[-0.046875,0,-0.046875],"type":"VEC3"},{"bufferView":41,"componentType":5126,"count":16,"max":[0.800000011920929,0.6000000238418579,0.800000011920929],"min":[-0.800000011920929,-1,-0.800000011920929],"type":"VEC3"},{"bufferView":42,"componentType":5126,"count":16,"max":[0.6171875,0.6015625],"min":[0.1875,0.09375],"type":"VEC2"},{"bufferView":43,"componentType":5123,"count":18,"max":[15],"min":[0],"type":"SCALAR"},{"bufferView":44,"componentType":5126,"count":16,"max":[0.046875,0.0625,0.046875],"min":[-0.046875,0,-0.046875],"type":"VEC3"},{"bufferView":45,"componentType":5126,"count":16,"max":[0.800000011920929,0.6000000238418579,0.800000011920929],"min":[-0.800000011920929,-1,-0.800000011920929],"type":"VEC3"},{"bufferView":46,"componentType":5126,"count":16,"max":[0.6171875,0.6015625],"min":[0.1875,0.1875],"type":"VEC2"},{"bufferView":47,"componentType":5123,"count":18,"max":[15],"min":[0],"type":"SCALAR"},{"bufferView":48,"componentType":5126,"count":16,"max":[0.046875,0.0625,0.046875],"min":[-0.046875,0,-0.046875],"type":"VEC3"},{"bufferView":49,"componentType":5126,"count":16,"max":[0.800000011920929,0.6000000238418579,0.800000011920929],"min":[-0.800000011920929,-1,-0.800000011920929],"type":"VEC3"},{"bufferView":50,"componentType":5126,"count":16,"max":[0.7109375,0.6953125],"min":[0,0],"type":"VEC2"},{"bufferView":51,"componentType":5123,"count":18,"max":[15],"min":[0],"type":"SCALAR"},{"bufferView":52,"componentType":5126,"count":16,"max":[0.046875,0.0625,0.046875],"min":[-0.046875,0,-0.046875],"type":"VEC3"},{"bufferView":53,"componentType":5126,"count":16,"max":[0.800000011920929,0.6000000238418579,0.800000011920929],"min":[-0.800000011920929,-1,-0.800000011920929],"type":"VEC3"},{"bufferView":54,"componentType":5126,"count":16,"max":[0.7109375,0.6953125],"min":[0.1953125,0],"type":"VEC2"},{"bufferView":55,"componentType":5123,"count":18,"max":[15],"min":[0],"type":"SCALAR"},{"bufferView":56,"componentType":5126,"count":16,"max":[0.046875,0.0625,0.046875],"min":[-0.046875,0,-0.046875],"type":"VEC3"},{"bufferView":57,"componentType":5126,"count":16,"max":[0.800000011920929,0.6000000238418579,0.800000011920929],"min":[-0.800000011920929,-1,-0.800000011920929],"type":"VEC3"},{"bufferView":58,"componentType":5126,"count":16,"max":[0.7109375,0.6953125],"min":[0.09375,0.28125],"type":"VEC2"},{"bufferView":59,"componentType":5123,"count":18,"max":[15],"min":[0],"type":"SCALAR"}],"materials":[{"pbrMetallicRoughness":{"metallicFactor":0,"roughnessFactor":1,"baseColorTexture":{"index":0}},"alphaMode":"MASK","alphaCutoff":0.05,"doubleSided":true},{"pbrMetallicRoughness":{"metallicFactor":0,"roughnessFactor":1,"baseColorTexture":{"index":1}},"alphaMode":"MASK","alphaCutoff":0.05,"doubleSided":true},{"pbrMetallicRoughness":{"metallicFactor":0,"roughnessFactor":1,"baseColorTexture":{"index":2}},"alphaMode":"MASK","alphaCutoff":0.05,"doubleSided":true},{"pbrMetallicRoughness":{"metallicFactor":0,"roughnessFactor":1,"baseColorTexture":{"index":3}},"alphaMode":"MASK","alphaCutoff":0.05,"doubleSided":true}],"textures":[{"sampler":0,"source":0,"name":"pot"},{"sampler":1,"source":1,"name":"dirt"},{"sampler":2,"source":2,"name":"cactus"},{"sampler":3,"source":3,"name":"spines"}],"samplers":[{"magFilter":9728,"minFilter":9728,"wrapS":33071,"wrapT":33071},{"magFilter":9728,"minFilter":9728,"wrapS":33071,"wrapT":33071},{"magFilter":9728,"minFilter":9728,"wrapS":33071,"wrapT":33071},{"magFilter":9728,"minFilter":9728,"wrapS":33071,"wrapT":33071}],"images":[{"mimeType":"image/png","uri":"data:image/png;base64,"},{"mimeType":"image/png","uri":"data:image/png;base64,"},{"mimeType":"image/png","uri":"data:image/png;base64,"},{"mimeType":"image/png","uri":"data:image/png;base64,"}],"meshes":[{"primitives":[{"mode":4,"attributes":{"POSITION":0,"NORMAL":1,"TEXCOORD_0":2},"indices":3,"material":0}]},{"primitives":[{"mode":4,"attributes":{"POSITION":4,"NORMAL":5,"TEXCOORD_0":6},"indices":7,"material":1}]},{"primitives":[{"mode":4,"attributes":{"POSITION":8,"NORMAL":9,"TEXCOORD_0":10},"indices":11,"material":2}]},{"primitives":[{"mode":4,"attributes":{"POSITION":12,"NORMAL":13,"TEXCOORD_0":14},"indices":15,"material":3}]},{"primitives":[{"mode":4,"attributes":{"POSITION":16,"NORMAL":17,"TEXCOORD_0":18},"indices":19,"material":3}]},{"primitives":[{"mode":4,"attributes":{"POSITION":20,"NORMAL":21,"TEXCOORD_0":22},"indices":23,"material":3}]},{"primitives":[{"mode":4,"attributes":{"POSITION":24,"NORMAL":25,"TEXCOORD_0":26},"indices":27,"material":3}]},{"primitives":[{"mode":4,"attributes":{"POSITION":28,"NORMAL":29,"TEXCOORD_0":30},"indices":31,"material":3}]},{"primitives":[{"mode":4,"attributes":{"POSITION":32,"NORMAL":33,"TEXCOORD_0":34},"indices":35,"material":3}]},{"primitives":[{"mode":4,"attributes":{"POSITION":36,"NORMAL":37,"TEXCOORD_0":38},"indices":39,"material":3}]},{"primitives":[{"mode":4,"attributes":{"POSITION":40,"NORMAL":41,"TEXCOORD_0":42},"indices":43,"material":3}]},{"primitives":[{"mode":4,"attributes":{"POSITION":44,"NORMAL":45,"TEXCOORD_0":46},"indices":47,"material":3}]},{"primitives":[{"mode":4,"attributes":{"POSITION":48,"NORMAL":49,"TEXCOORD_0":50},"indices":51,"material":3}]},{"primitives":[{"mode":4,"attributes":{"POSITION":52,"NORMAL":53,"TEXCOORD_0":54},"indices":55,"material":3}]},{"primitives":[{"mode":4,"attributes":{"POSITION":56,"NORMAL":57,"TEXCOORD_0":58},"indices":59,"material":3}]}]}