{"asset":{"version":"2.0","generator":"Blockbench 4.12.6 glTF exporter"},"scenes":[{"nodes":[8],"name":"blockbench_export"}],"scene":0,"nodes":[{"rotation":[0,0,-1,6.123233995736766e-17],"translation":[0,0.875,0],"name":"lampshade","mesh":0},{"rotation":[0,0,-1,6.123233995736766e-17],"translation":[0,0.40625,0],"name":"mid","mesh":1},{"translation":[0,0.625,0],"name":"bulb","mesh":2},{"translation":[0,0.546875,0],"name":"bulbbase","mesh":3},{"rotation":[-0.13052619222005157,0,0,0.9914448613738104],"translation":[0,0.5,-0.0625],"name":"frame","mesh":4},{"rotation":[0,0,-0.13052619222005157,0.9914448613738104],"translation":[0.0625,0.5,0],"name":"frame","mesh":5},{"rotation":[0.13052619222005157,0,0,0.9914448613738104],"translation":[0,0.5,0.0625],"name":"frame","mesh":6},{"rotation":[0,0,0.13052619222005157,0.9914448613738104],"translation":[-0.0625,0.5,0],"name":"frame","mesh":7},{"children":[0,1,2,3,4,5,6,7]}],"bufferViews":[{"buffer":0,"byteOffset":0,"byteLength":4032,"target":34962,"byteStride":12},{"buffer":0,"byteOffset":4032,"byteLength":4032,"target":34962,"byteStride":12},{"buffer":0,"byteOffset":8064,"byteLength":2688,"target":34962,"byteStride":8},{"buffer":0,"byteOffset":10752,"byteLength":1008,"target":34963},{"buffer":0,"byteOffset":11760,"byteLength":2688,"target":34962,"byteStride":12},{"buffer":0,"byteOffset":14448,"byteLength":2688,"target":34962,"byteStride":12},{"buffer":0,"byteOffset":17136,"byteLength":1792,"target":34962,"byteStride":8},{"buffer":0,"byteOffset":18928,"byteLength":648,"target":34963},{"buffer":0,"byteOffset":19576,"byteLength":1152,"target":34962,"byteStride":12},{"buffer":0,"byteOffset":20728,"byteLength":1152,"target":34962,"byteStride":12},{"buffer":0,"byteOffset":21880,"byteLength":768,"target":34962,"byteStride":8},{"buffer":0,"byteOffset":22648,"byteLength":264,"target":34963},{"buffer":0,"byteOffset":22912,"byteLength":1152,"target":34962,"byteStride":12},{"buffer":0,"byteOffset":24064,"byteLength":1152,"target":34962,"byteStride":12},{"buffer":0,"byteOffset":25216,"byteLength":768,"target":34962,"byteStride":8},{"buffer":0,"byteOffset":25984,"byteLength":264,"target":34963},{"buffer":0,"byteOffset":26248,"byteLength":1152,"target":34962,"byteStride":12},{"buffer":0,"byteOffset":27400,"byteLength":1152,"target":34962,"byteStride":12},{"buffer":0,"byteOffset":28552,"byteLength":768,"target":34962,"byteStride":8},{"buffer":0,"byteOffset":29320,"byteLength":264,"target":34963},{"buffer":0,"byteOffset":29584,"byteLength":1152,"target":34962,"byteStride":12},{"buffer":0,"byteOffset":30736,"byteLength":1152,"target":34962,"byteStride":12},{"buffer":0,"byteOffset":31888,"byteLength":768,"target":34962,"byteStride":8},{"buffer":0,"byteOffset":32656,"byteLength":264,"target":34963},{"buffer":0,"byteOffset":32920,"byteLength":1152,"target":34962,"byteStride":12},{"buffer":0,"byteOffset":34072,"byteLength":1152,"target":34962,"byteStride":12},{"buffer":0,"byteOffset":35224,"byteLength":768,"target":34962,"byteStride":8},{"buffer":0,"byteOffset":35992,"byteLength":264,"target":34963},{"buffer":0,"byteOffset":36256,"byteLength":1152,"target":34962,"byteStride":12},{"buffer":0,"byteOffset":37408,"byteLength":1152,"target":34962,"byteStride":12},{"buffer":0,"byteOffset":38560,"byteLength":768,"target":34962,"byteStride":8},{"buffer":0,"byteOffset":39328,"byteLength":264,"target":34963}],"buffers":[{"byteLength":39592,"uri":"data:application/octet-stream;base64,"}],"accessors":[{"bufferView":0,"componentType":5126,"count":336,"max":[0.28125,0.421875,0.28125],"min":[-0.28125,-0.0625,-0.28125],"type":"VEC3"},{"bufferView":1,"componentType":5126,"count":336,"max":[1,1,1],"min":[-1,-1,-1],"type":"VEC3"},{"bufferView":2,"componentType":5126,"count":336,"max":[0.6190218925476074,0.5961503982543945],"min":[0,0],"type":"VEC2"},{"bufferView":3,"componentType":5123,"count":504,"max":[335],"min":[0],"type":"SCALAR"},{"bufferView":4,"componentType":5126,"count":224,"max":[0.15625,0.28125,0.15625],"min":[-0.15625,-0.15625,-0.15625],"type":"VEC3"},{"bufferView":5,"componentType":5126,"count":224,"max":[1,1,1],"min":[-1,-1,-1],"type":"VEC3"},{"bufferView":6,"componentType":5126,"count":224,"max":[0.5716140866279602,0.5730577707290649],"min":[0.010046875104308128,0.00823122262954712],"type":"VEC2"},{"bufferView":7,"componentType":5123,"count":324,"max":[223],"min":[0],"type":"SCALAR"},{"bufferView":8,"componentType":5126,"count":96,"max":[0.09375,0.203125,0.09375],"min":[-0.09375,-0.015625,-0.09375],"type":"VEC3"},{"bufferView":9,"componentType":5126,"count":96,"max":[1,1,1],"min":[-1,-1,-1],"type":"VEC3"},{"bufferView":10,"componentType":5126,"count":96,"max":[0.6875,0.65625],"min":[0.036465760320425034,0.03125],"type":"VEC2"},{"bufferView":11,"componentType":5123,"count":132,"max":[95],"min":[0],"type":"SCALAR"},{"bufferView":12,"componentType":5126,"count":96,"max":[0.046875,0.15625,0.046875],"min":[-0.046875,0,-0.046875],"type":"VEC3"},{"bufferView":13,"componentType":5126,"count":96,"max":[1,1,1],"min":[-1,-1,-1],"type":"VEC3"},{"bufferView":14,"componentType":5126,"count":96,"max":[0.6875,0.6875],"min":[0.15839937329292297,0],"type":"VEC2"},{"bufferView":15,"componentType":5123,"count":132,"max":[95],"min":[0],"type":"SCALAR"},{"bufferView":16,"componentType":5126,"count":96,"max":[0.03125,0.375,0.03125],"min":[-0.03125,0,-0.03125],"type":"VEC3"},{"bufferView":17,"componentType":5126,"count":96,"max":[1,1,1],"min":[-1,-1,-1],"type":"VEC3"},{"bufferView":18,"componentType":5126,"count":96,"max":[0.6875,0.6877156496047974],"min":[0.265625,0],"type":"VEC2"},{"bufferView":19,"componentType":5123,"count":132,"max":[95],"min":[0],"type":"SCALAR"},{"bufferView":20,"componentType":5126,"count":96,"max":[0.03125,0.375,0.03125],"min":[-0.03125,0,-0.03125],"type":"VEC3"},{"bufferView":21,"componentType":5126,"count":96,"max":[1,1,1],"min":[-1,-1,-1],"type":"VEC3"},{"bufferView":22,"componentType":5126,"count":96,"max":[0.6875,0.6877156496047974],"min":[0.00390625,0],"type":"VEC2"},{"bufferView":23,"componentType":5123,"count":132,"max":[95],"min":[0],"type":"SCALAR"},{"bufferView":24,"componentType":5126,"count":96,"max":[0.03125,0.375,0.03125],"min":[-0.03125,0,-0.03125],"type":"VEC3"},{"bufferView":25,"componentType":5126,"count":96,"max":[1,1,1],"min":[-1,-1,-1],"type":"VEC3"},{"bufferView":26,"componentType":5126,"count":96,"max":[0.6875,0.7189656496047974],"min":[0.06640625,0],"type":"VEC2"},{"bufferView":27,"componentType":5123,"count":132,"max":[95],"min":[0],"type":"SCALAR"},{"bufferView":28,"componentType":5126,"count":96,"max":[0.03125,0.375,0.03125],"min":[-0.03125,0,-0.03125],"type":"VEC3"},{"bufferView":29,"componentType":5126,"count":96,"max":[1,1,1],"min":[-1,-1,-1],"type":"VEC3"},{"bufferView":30,"componentType":5126,"count":96,"max":[0.65625,0.703125],"min":[0,0.125],"type":"VEC2"},{"bufferView":31,"componentType":5123,"count":132,"max":[95],"min":[0],"type":"SCALAR"}],"materials":[{"pbrMetallicRoughness":{"metallicFactor":0,"roughnessFactor":1,"baseColorTexture":{"index":0}},"alphaMode":"MASK","alphaCutoff":0.05,"doubleSided":true}],"textures":[{"sampler":0,"source":0,"name":"lamp"}],"samplers":[{"magFilter":9728,"minFilter":9728,"wrapS":33071,"wrapT":33071}],"images":[{"mimeType":"image/png","uri":"data:image/png;base64,"}],"meshes":[{"primitives":[{"mode":4,"attributes":{"POSITION":0,"NORMAL":1,"TEXCOORD_0":2},"indices":3,"material":0}]},{"primitives":[{"mode":4,"attributes":{"POSITION":4,"NORMAL":5,"TEXCOORD_0":6},"indices":7,"material":0}]},{"primitives":[{"mode":4,"attributes":{"POSITION":8,"NORMAL":9,"TEXCOORD_0":10},"indices":11,"material":0}]},{"primitives":[{"mode":4,"attributes":{"POSITION":12,"NORMAL":13,"TEXCOORD_0":14},"indices":15,"material":0}]},{"primitives":[{"mode":4,"attributes":{"POSITION":16,"NORMAL":17,"TEXCOORD_0":18},"indices":19,"material":0}]},{"primitives":[{"mode":4,"attributes":{"POSITION":20,"NORMAL":21,"TEXCOORD_0":22},"indices":23,"material":0}]},{"primitives":[{"mode":4,"attributes":{"POSITION":24,"NORMAL":25,"TEXCOORD_0":26},"indices":27,"material":0}]},{"primitives":[{"mode":4,"attributes":{"POSITION":28,"NORMAL":29,"TEXCOORD_0":30},"indices":31,"material":0}]}]}