{"asset":{"version":"2.0","generator":"Blockbench 4.12.6 glTF exporter"},"scenes":[{"nodes":[2],"name":"blockbench_export"}],"scene":0,"nodes":[{"translation":[0,0.3125,0],"name":"beveled_cuboid","mesh":0},{"translation":[0,0.3125,0],"name":"beveled_cuboid","mesh":1},{"children":[0,1]}],"bufferViews":[{"buffer":0,"byteOffset":0,"byteLength":1536,"target":34962,"byteStride":12},{"buffer":0,"byteOffset":1536,"byteLength":1536,"target":34962,"byteStride":12},{"buffer":0,"byteOffset":3072,"byteLength":1024,"target":34962,"byteStride":8},{"buffer":0,"byteOffset":4096,"byteLength":360,"target":34963},{"buffer":0,"byteOffset":4456,"byteLength":1152,"target":34962,"byteStride":12},{"buffer":0,"byteOffset":5608,"byteLength":1152,"target":34962,"byteStride":12},{"buffer":0,"byteOffset":6760,"byteLength":768,"target":34962,"byteStride":8},{"buffer":0,"byteOffset":7528,"byteLength":264,"target":34963}],"buffers":[{"byteLength":7792,"uri":"data:application/octet-stream;base64,"}],"accessors":[{"bufferView":0,"componentType":5126,"count":128,"max":[0.5,0.4375,0.5],"min":[-0.5,0.25,-0.5],"type":"VEC3"},{"bufferView":1,"componentType":5126,"count":128,"max":[0.8944271802902222,1,0.8944271802902222],"min":[-0.8944271802902222,-1,-0.8944271802902222],"type":"VEC3"},{"bufferView":2,"componentType":5126,"count":128,"max":[0.5,0.515625],"min":[0,0],"type":"VEC2"},{"bufferView":3,"componentType":5123,"count":180,"max":[127],"min":[0],"type":"SCALAR"},{"bufferView":4,"componentType":5126,"count":96,"max":[0.375,0.25,0.375],"min":[-0.375,0.125,-0.375],"type":"VEC3"},{"bufferView":5,"componentType":5126,"count":96,"max":[1,1,1],"min":[-1,-1,-1],"type":"VEC3"},{"bufferView":6,"componentType":5126,"count":96,"max":[0.75,0.78125],"min":[0,0],"type":"VEC2"},{"bufferView":7,"componentType":5123,"count":132,"max":[95],"min":[0],"type":"SCALAR"}],"materials":[{"pbrMetallicRoughness":{"metallicFactor":0,"roughnessFactor":1,"baseColorTexture":{"index":0}},"alphaMode":"MASK","alphaCutoff":0.05,"doubleSided":true},{"pbrMetallicRoughness":{"metallicFactor":0,"roughnessFactor":1,"baseColorTexture":{"index":1}},"alphaMode":"MASK","alphaCutoff":0.05,"doubleSided":true}],"textures":[{"sampler":0,"source":0,"name":"texture"},{"sampler":1,"source":1,"name":"texture"}],"samplers":[{"magFilter":9728,"minFilter":9728,"wrapS":33071,"wrapT":33071},{"magFilter":9728,"minFilter":9728,"wrapS":33071,"wrapT":33071}],"images":[{"mimeType":"image/png","uri":"data:image/png;base64,"},{"mimeType":"image/png","uri":"data:image/png;base64,"}],"meshes":[{"primitives":[{"mode":4,"attributes":{"POSITION":0,"NORMAL":1,"TEXCOORD_0":2},"indices":3,"material":0}]},{"primitives":[{"mode":4,"attributes":{"POSITION":4,"NORMAL":5,"TEXCOORD_0":6},"indices":7,"material":1}]}]}