{"asset":{"version":"2.0","generator":"Blockbench 4.12.6 glTF exporter"},"scenes":[{"nodes":[9],"name":"blockbench_export"}],"scene":0,"nodes":[{"rotation":[-0.4999999999999999,-0.5000000000000001,0.49999999999999983,0.5000000000000001],"translation":[0,1.375,0.375],"name":"leg","mesh":0},{"rotation":[-0.4999999999999999,-0.5000000000000001,0.49999999999999983,0.5000000000000001],"translation":[-0.875,1.375,0.375],"name":"leg","mesh":1},{"rotation":[-0.4999999999999999,-0.5000000000000001,0.49999999999999983,0.5000000000000001],"translation":[-0.875,1.375,1.25],"name":"leg","mesh":2},{"rotation":[-0.4999999999999999,-0.5000000000000001,0.49999999999999983,0.5000000000000001],"translation":[0,1.375,1.25],"name":"leg","mesh":3},{"rotation":[-0.4999999999999999,-0.5000000000000001,0.49999999999999983,0.5000000000000001],"translation":[0,2.625,1.25],"name":"tabletop","mesh":4},{"rotation":[-0.4999999999999999,-0.5000000000000001,0.49999999999999983,0.5000000000000001],"translation":[0,1.375,1.125],"name":"support","mesh":5},{"rotation":[0.7071067811865481,0.7071067811865469,-1.028651080833815e-15,9.420554752102642e-16],"translation":[-1.125,1.375,0],"name":"support","mesh":6},{"rotation":[-0.4999999999999999,-0.5000000000000001,0.49999999999999983,0.5000000000000001],"translation":[-0.875,1.375,1.125],"name":"support","mesh":7},{"rotation":[0.7071067811865481,0.7071067811865469,-1.028651080833815e-15,9.420554752102642e-16],"translation":[-1.125,1.375,-0.875],"name":"support","mesh":8},{"children":[0,1,2,3,4,5,6,7,8]}],"bufferViews":[{"buffer":0,"byteOffset":0,"byteLength":672,"target":34962,"byteStride":12},{"buffer":0,"byteOffset":672,"byteLength":672,"target":34962,"byteStride":12},{"buffer":0,"byteOffset":1344,"byteLength":448,"target":34962,"byteStride":8},{"buffer":0,"byteOffset":1792,"byteLength":168,"target":34963},{"buffer":0,"byteOffset":1960,"byteLength":672,"target":34962,"byteStride":12},{"buffer":0,"byteOffset":2632,"byteLength":672,"target":34962,"byteStride":12},{"buffer":0,"byteOffset":3304,"byteLength":448,"target":34962,"byteStride":8},{"buffer":0,"byteOffset":3752,"byteLength":168,"target":34963},{"buffer":0,"byteOffset":3920,"byteLength":672,"target":34962,"byteStride":12},{"buffer":0,"byteOffset":4592,"byteLength":672,"target":34962,"byteStride":12},{"buffer":0,"byteOffset":5264,"byteLength":448,"target":34962,"byteStride":8},{"buffer":0,"byteOffset":5712,"byteLength":168,"target":34963},{"buffer":0,"byteOffset":5880,"byteLength":672,"target":34962,"byteStride":12},{"buffer":0,"byteOffset":6552,"byteLength":672,"target":34962,"byteStride":12},{"buffer":0,"byteOffset":7224,"byteLength":448,"target":34962,"byteStride":8},{"buffer":0,"byteOffset":7672,"byteLength":168,"target":34963},{"buffer":0,"byteOffset":7840,"byteLength":288,"target":34962,"byteStride":12},{"buffer":0,"byteOffset":8128,"byteLength":288,"target":34962,"byteStride":12},{"buffer":0,"byteOffset":8416,"byteLength":192,"target":34962,"byteStride":8},{"buffer":0,"byteOffset":8608,"byteLength":72,"target":34963},{"buffer":0,"byteOffset":8680,"byteLength":1056,"target":34962,"byteStride":12},{"buffer":0,"byteOffset":9736,"byteLength":1056,"target":34962,"byteStride":12},{"buffer":0,"byteOffset":10792,"byteLength":704,"target":34962,"byteStride":8},{"buffer":0,"byteOffset":11496,"byteLength":264,"target":34963},{"buffer":0,"byteOffset":11760,"byteLength":1056,"target":34962,"byteStride":12},{"buffer":0,"byteOffset":12816,"byteLength":1056,"target":34962,"byteStride":12},{"buffer":0,"byteOffset":13872,"byteLength":704,"target":34962,"byteStride":8},{"buffer":0,"byteOffset":14576,"byteLength":264,"target":34963},{"buffer":0,"byteOffset":14840,"byteLength":1056,"target":34962,"byteStride":12},{"buffer":0,"byteOffset":15896,"byteLength":1056,"target":34962,"byteStride":12},{"buffer":0,"byteOffset":16952,"byteLength":704,"target":34962,"byteStride":8},{"buffer":0,"byteOffset":17656,"byteLength":264,"target":34963},{"buffer":0,"byteOffset":17920,"byteLength":1056,"target":34962,"byteStride":12},{"buffer":0,"byteOffset":18976,"byteLength":1056,"target":34962,"byteStride":12},{"buffer":0,"byteOffset":20032,"byteLength":704,"target":34962,"byteStride":8},{"buffer":0,"byteOffset":20736,"byteLength":264,"target":34963}],"buffers":[{"byteLength":21000,"uri":"data:application/octet-stream;base64,"}],"accessors":[{"bufferView":0,"componentType":5126,"count":56,"max":[-0.125,0.9375,-0.375],"min":[-1.375,0.75,-0.5625],"type":"VEC3"},{"bufferView":1,"componentType":5126,"count":56,"max":[1,1,1],"min":[-1,-1,-1],"type":"VEC3"},{"bufferView":2,"componentType":5126,"count":56,"max":[0.3515625,0.71875],"min":[0,0.1328125],"type":"VEC2"},{"bufferView":3,"componentType":5123,"count":84,"max":[55],"min":[0],"type":"SCALAR"},{"bufferView":4,"componentType":5126,"count":56,"max":[-0.125,0.9375,-0.3125],"min":[-1.375,0.75,-0.5],"type":"VEC3"},{"bufferView":5,"componentType":5126,"count":56,"max":[1,1,1],"min":[-1,-1,-1],"type":"VEC3"},{"bufferView":6,"componentType":5126,"count":56,"max":[0.3515625,0.71875],"min":[0,0.1328125],"type":"VEC2"},{"bufferView":7,"componentType":5123,"count":84,"max":[55],"min":[0],"type":"SCALAR"},{"bufferView":8,"componentType":5126,"count":56,"max":[-0.125,0.875,-0.3125],"min":[-1.375,0.6875,-0.5],"type":"VEC3"},{"bufferView":9,"componentType":5126,"count":56,"max":[1,1,1],"min":[-1,-1,-1],"type":"VEC3"},{"bufferView":10,"componentType":5126,"count":56,"max":[0.3515625,0.71875],"min":[0,0.1328125],"type":"VEC2"},{"bufferView":11,"componentType":5123,"count":84,"max":[55],"min":[0],"type":"SCALAR"},{"bufferView":12,"componentType":5126,"count":56,"max":[-0.125,0.875,-0.375],"min":[-1.375,0.6875,-0.5625],"type":"VEC3"},{"bufferView":13,"componentType":5126,"count":56,"max":[1,1,1],"min":[-1,-1,-1],"type":"VEC3"},{"bufferView":14,"componentType":5126,"count":56,"max":[0.3515625,0.71875],"min":[0,0.1328125],"type":"VEC2"},{"bufferView":15,"componentType":5123,"count":84,"max":[55],"min":[0],"type":"SCALAR"},{"bufferView":16,"componentType":5126,"count":24,"max":[-1.25,1.875,0.625],"min":[-1.375,0.625,-0.625],"type":"VEC3"},{"bufferView":17,"componentType":5126,"count":24,"max":[1,1,1],"min":[-1,-1,-1],"type":"VEC3"},{"bufferView":18,"componentType":5126,"count":24,"max":[0.3515625,0.71875],"min":[0,0.1328125],"type":"VEC2"},{"bufferView":19,"componentType":5123,"count":36,"max":[23],"min":[0],"type":"SCALAR"},{"bufferView":20,"componentType":5126,"count":88,"max":[-0.125,1.5,-0.375],"min":[-0.3125,0.75,-0.5625],"type":"VEC3"},{"bufferView":21,"componentType":5126,"count":88,"max":[1,1,1],"min":[-1,-1,-1],"type":"VEC3"},{"bufferView":22,"componentType":5126,"count":88,"max":[0.3515625,0.71875],"min":[0,0.1328125],"type":"VEC2"},{"bufferView":23,"componentType":5123,"count":132,"max":[87],"min":[0],"type":"SCALAR"},{"bufferView":24,"componentType":5126,"count":88,"max":[-0.125,1.5,-0.375],"min":[-0.3125,0.75,-0.5625],"type":"VEC3"},{"bufferView":25,"componentType":5126,"count":88,"max":[1,1,1],"min":[-1,-1,-1],"type":"VEC3"},{"bufferView":26,"componentType":5126,"count":88,"max":[0.3515625,0.71875],"min":[0,0.1328125],"type":"VEC2"},{"bufferView":27,"componentType":5123,"count":132,"max":[87],"min":[0],"type":"SCALAR"},{"bufferView":28,"componentType":5126,"count":88,"max":[-0.125,1.5,-0.3125],"min":[-0.3125,0.75,-0.5],"type":"VEC3"},{"bufferView":29,"componentType":5126,"count":88,"max":[1,1,1],"min":[-1,-1,-1],"type":"VEC3"},{"bufferView":30,"componentType":5126,"count":88,"max":[0.3515625,0.71875],"min":[0,0.1328125],"type":"VEC2"},{"bufferView":31,"componentType":5123,"count":132,"max":[87],"min":[0],"type":"SCALAR"},{"bufferView":32,"componentType":5126,"count":88,"max":[-0.125,1.5,-0.3125],"min":[-0.3125,0.75,-0.5],"type":"VEC3"},{"bufferView":33,"componentType":5126,"count":88,"max":[1,1,1],"min":[-1,-1,-1],"type":"VEC3"},{"bufferView":34,"componentType":5126,"count":88,"max":[0.3515625,0.71875],"min":[0,0.1328125],"type":"VEC2"},{"bufferView":35,"componentType":5123,"count":132,"max":[87],"min":[0],"type":"SCALAR"}],"materials":[{"pbrMetallicRoughness":{"metallicFactor":0,"roughnessFactor":1,"baseColorTexture":{"index":0}},"alphaMode":"MASK","alphaCutoff":0.05,"doubleSided":true}],"textures":[{"sampler":0,"source":0,"name":"shelftexture"}],"samplers":[{"magFilter":9728,"minFilter":9728,"wrapS":33071,"wrapT":33071}],"images":[{"mimeType":"image/png","uri":"data:image/png;base64,"}],"meshes":[{"primitives":[{"mode":4,"attributes":{"POSITION":0,"NORMAL":1,"TEXCOORD_0":2},"indices":3,"material":0}]},{"primitives":[{"mode":4,"attributes":{"POSITION":4,"NORMAL":5,"TEXCOORD_0":6},"indices":7,"material":0}]},{"primitives":[{"mode":4,"attributes":{"POSITION":8,"NORMAL":9,"TEXCOORD_0":10},"indices":11,"material":0}]},{"primitives":[{"mode":4,"attributes":{"POSITION":12,"NORMAL":13,"TEXCOORD_0":14},"indices":15,"material":0}]},{"primitives":[{"mode":4,"attributes":{"POSITION":16,"NORMAL":17,"TEXCOORD_0":18},"indices":19,"material":0}]},{"primitives":[{"mode":4,"attributes":{"POSITION":20,"NORMAL":21,"TEXCOORD_0":22},"indices":23,"material":0}]},{"primitives":[{"mode":4,"attributes":{"POSITION":24,"NORMAL":25,"TEXCOORD_0":26},"indices":27,"material":0}]},{"primitives":[{"mode":4,"attributes":{"POSITION":28,"NORMAL":29,"TEXCOORD_0":30},"indices":31,"material":0}]},{"primitives":[{"mode":4,"attributes":{"POSITION":32,"NORMAL":33,"TEXCOORD_0":34},"indices":35,"material":0}]}]}