{"asset":{"version":"2.0","generator":"Blockbench 4.2.5 glTF exporter"},"scenes":[{"nodes":[28],"name":"blockbench_export"}],"scene":0,"nodes":[{"translation":[0,0.25,0],"name":"head","mesh":0},{"name":"neck","mesh":1},{"translation":[0,-0.125,-0.0625],"name":"upper","mesh":2},{"translation":[0,-1.1875,-0.0625],"name":"lower","mesh":3},{"translation":[0,-0.875,0],"name":"mid","mesh":4},{"name":"arm left","mesh":5},{"name":"forearm left","mesh":6},{"rotation":[0.5,-0.4999999999999999,0.5,0.5000000000000001],"name":"hand left","mesh":7},{"translation":[0,-0.5625,0],"name":"hand","children":[7]},{"translation":[0.125,-0.8125,0],"name":"forearm","children":[6,8]},{"translation":[0.3125,-0.1875,0],"name":"leftarm","children":[5,9]},{"name":"thigh left","mesh":8},{"translation":[0,-1,-0.0625],"name":"calf left","mesh":9},{"translation":[0,-1.8125,-0.0625],"name":"foot left","mesh":10},{"translation":[0.1875,-1.625,-0.0625],"name":"leftleg","children":[11,12,13]},{"name":"arm left","mesh":11},{"name":"forearm left","mesh":12},{"rotation":[0.5,-0.4999999999999999,0.5,0.5000000000000001],"name":"hand left","mesh":13},{"translation":[0,-0.5625,0],"name":"hand2","children":[17]},{"translation":[0.125,-0.8125,0],"name":"forearm2","children":[16,18]},{"translation":[-0.5625,-0.1875,0],"name":"rightarm","children":[15,19]},{"name":"thigh left","mesh":14},{"translation":[0,-1,-0.0625],"name":"calf left","mesh":15},{"translation":[0,-1.8125,-0.0625],"name":"foot left","mesh":16},{"translation":[-0.1875,-1.625,-0.0625],"name":"rightleg","children":[21,22,23]},{"translation":[0,0.1875,0.0625],"name":"torso","children":[2,3,4,10,14,20,24]},{"translation":[0.875,1.625,-0.0625],"name":"head","children":[0,1,25]},{"translation":[-0.875,1.8125,0],"name":"all","children":[26]},{"children":[27]}],"bufferViews":[{"buffer":0,"byteOffset":0,"byteLength":4920,"target":34962,"byteStride":12},{"buffer":0,"byteOffset":4920,"byteLength":4920,"target":34962,"byteStride":12},{"buffer":0,"byteOffset":9840,"byteLength":3280,"target":34962,"byteStride":8},{"buffer":0,"byteOffset":13120,"byteLength":1152,"target":34963},{"buffer":0,"byteOffset":14272,"byteLength":1656,"target":34962,"byteStride":12},{"buffer":0,"byteOffset":15928,"byteLength":1656,"target":34962,"byteStride":12},{"buffer":0,"byteOffset":17584,"byteLength":1104,"target":34962,"byteStride":8},{"buffer":0,"byteOffset":18688,"byteLength":384,"target":34963},{"buffer":0,"byteOffset":19072,"byteLength":9072,"target":34962,"byteStride":12},{"buffer":0,"byteOffset":28144,"byteLength":9072,"target":34962,"byteStride":12},{"buffer":0,"byteOffset":37216,"byteLength":6048,"target":34962,"byteStride":8},{"buffer":0,"byteOffset":43264,"byteLength":2160,"target":34963},{"buffer":0,"byteOffset":45424,"byteLength":6636,"target":34962,"byteStride":12},{"buffer":0,"byteOffset":52060,"byteLength":6636,"target":34962,"byteStride":12},{"buffer":0,"byteOffset":58696,"byteLength":4424,"target":34962,"byteStride":8},{"buffer":0,"byteOffset":63120,"byteLength":1580,"target":34963},{"buffer":0,"byteOffset":64700,"byteLength":5496,"target":34962,"byteStride":12},{"buffer":0,"byteOffset":70196,"byteLength":5496,"target":34962,"byteStride":12},{"buffer":0,"byteOffset":75692,"byteLength":3664,"target":34962,"byteStride":8},{"buffer":0,"byteOffset":79356,"byteLength":1296,"target":34963},{"buffer":0,"byteOffset":80652,"byteLength":288,"target":34962,"byteStride":12},{"buffer":0,"byteOffset":80940,"byteLength":288,"target":34962,"byteStride":12},{"buffer":0,"byteOffset":81228,"byteLength":192,"target":34962,"byteStride":8},{"buffer":0,"byteOffset":81420,"byteLength":72,"target":34963},{"buffer":0,"byteOffset":81492,"byteLength":288,"target":34962,"byteStride":12},{"buffer":0,"byteOffset":81780,"byteLength":288,"target":34962,"byteStride":12},{"buffer":0,"byteOffset":82068,"byteLength":192,"target":34962,"byteStride":8},{"buffer":0,"byteOffset":82260,"byteLength":72,"target":34963},{"buffer":0,"byteOffset":82332,"byteLength":288,"target":34962,"byteStride":12},{"buffer":0,"byteOffset":82620,"byteLength":288,"target":34962,"byteStride":12},{"buffer":0,"byteOffset":82908,"byteLength":192,"target":34962,"byteStride":8},{"buffer":0,"byteOffset":83100,"byteLength":72,"target":34963},{"buffer":0,"byteOffset":83172,"byteLength":288,"target":34962,"byteStride":12},{"buffer":0,"byteOffset":83460,"byteLength":288,"target":34962,"byteStride":12},{"buffer":0,"byteOffset":83748,"byteLength":192,"target":34962,"byteStride":8},{"buffer":0,"byteOffset":83940,"byteLength":72,"target":34963},{"buffer":0,"byteOffset":84012,"byteLength":288,"target":34962,"byteStride":12},{"buffer":0,"byteOffset":84300,"byteLength":288,"target":34962,"byteStride":12},{"buffer":0,"byteOffset":84588,"byteLength":192,"target":34962,"byteStride":8},{"buffer":0,"byteOffset":84780,"byteLength":72,"target":34963},{"buffer":0,"byteOffset":84852,"byteLength":288,"target":34962,"byteStride":12},{"buffer":0,"byteOffset":85140,"byteLength":288,"target":34962,"byteStride":12},{"buffer":0,"byteOffset":85428,"byteLength":192,"target":34962,"byteStride":8},{"buffer":0,"byteOffset":85620,"byteLength":72,"target":34963},{"buffer":0,"byteOffset":85692,"byteLength":288,"target":34962,"byteStride":12},{"buffer":0,"byteOffset":85980,"byteLength":288,"target":34962,"byteStride":12},{"buffer":0,"byteOffset":86268,"byteLength":192,"target":34962,"byteStride":8},{"buffer":0,"byteOffset":86460,"byteLength":72,"target":34963},{"buffer":0,"byteOffset":86532,"byteLength":288,"target":34962,"byteStride":12},{"buffer":0,"byteOffset":86820,"byteLength":288,"target":34962,"byteStride":12},{"buffer":0,"byteOffset":87108,"byteLength":192,"target":34962,"byteStride":8},{"buffer":0,"byteOffset":87300,"byteLength":72,"target":34963},{"buffer":0,"byteOffset":87372,"byteLength":288,"target":34962,"byteStride":12},{"buffer":0,"byteOffset":87660,"byteLength":288,"target":34962,"byteStride":12},{"buffer":0,"byteOffset":87948,"byteLength":192,"target":34962,"byteStride":8},{"buffer":0,"byteOffset":88140,"byteLength":72,"target":34963},{"buffer":0,"byteOffset":88212,"byteLength":288,"target":34962,"byteStride":12},{"buffer":0,"byteOffset":88500,"byteLength":288,"target":34962,"byteStride":12},{"buffer":0,"byteOffset":88788,"byteLength":192,"target":34962,"byteStride":8},{"buffer":0,"byteOffset":88980,"byteLength":72,"target":34963},{"buffer":0,"byteOffset":89052,"byteLength":288,"target":34962,"byteStride":12},{"buffer":0,"byteOffset":89340,"byteLength":288,"target":34962,"byteStride":12},{"buffer":0,"byteOffset":89628,"byteLength":192,"target":34962,"byteStride":8},{"buffer":0,"byteOffset":89820,"byteLength":72,"target":34963},{"buffer":0,"byteOffset":89892,"byteLength":288,"target":34962,"byteStride":12},{"buffer":0,"byteOffset":90180,"byteLength":288,"target":34962,"byteStride":12},{"buffer":0,"byteOffset":90468,"byteLength":192,"target":34962,"byteStride":8},{"buffer":0,"byteOffset":90660,"byteLength":72,"target":34963}],"buffers":[{"byteLength":90732,"uri":"data:application/octet-stream;base64,"}],"accessors":[{"bufferView":0,"componentType":5126,"count":410,"max":[0.1875,0.4375,0.25],"min":[-0.1875,-0.0625,-0.1875],"type":"VEC3"},{"bufferView":1,"componentType":5126,"count":410,"max":[1,1,1],"min":[-1,-1,-1],"type":"VEC3"},{"bufferView":2,"componentType":5126,"count":410,"max":[0.515625,1],"min":[0.004576562438160181,0.4765625],"type":"VEC2"},{"bufferView":3,"componentType":5123,"count":576,"max":[409],"min":[0],"type":"SCALAR"},{"bufferView":4,"componentType":5126,"count":138,"max":[0.09375,0.375,0.15625],"min":[-0.09375,0,-0.09375],"type":"VEC3"},{"bufferView":5,"componentType":5126,"count":138,"max":[1,1,1],"min":[-1,-1,-1],"type":"VEC3"},{"bufferView":6,"componentType":5126,"count":138,"max":[0.5252817869186401,1],"min":[0.015625,0.46875],"type":"VEC2"},{"bufferView":7,"componentType":5123,"count":192,"max":[137],"min":[0],"type":"SCALAR"},{"bufferView":8,"componentType":5126,"count":756,"max":[0.3125,0,0.375],"min":[-0.3125,-0.75,-0.25],"type":"VEC3"},{"bufferView":9,"componentType":5126,"count":756,"max":[1,1,1],"min":[-1,-1,-1],"type":"VEC3"},{"bufferView":10,"componentType":5126,"count":756,"max":[0.5234375,1],"min":[0,0.4765625],"type":"VEC2"},{"bufferView":11,"componentType":5123,"count":1080,"max":[755],"min":[0],"type":"SCALAR"},{"bufferView":12,"componentType":5126,"count":553,"max":[0.3125,0.0625,0.25],"min":[-0.3125,-0.375,-0.375],"type":"VEC3"},{"bufferView":13,"componentType":5126,"count":553,"max":[1,1,1],"min":[-1,-1,-1],"type":"VEC3"},{"bufferView":14,"componentType":5126,"count":553,"max":[0.5234375,1],"min":[0,0.4765625],"type":"VEC2"},{"bufferView":15,"componentType":5123,"count":789,"max":[552],"min":[0],"type":"SCALAR"},{"bufferView":16,"componentType":5126,"count":458,"max":[0.25,0.1875,0.1875],"min":[-0.25,-0.3125,-0.3125],"type":"VEC3"},{"bufferView":17,"componentType":5126,"count":458,"max":[1,1,1],"min":[-1,-1,-1],"type":"VEC3"},{"bufferView":18,"componentType":5126,"count":458,"max":[0.53125,1],"min":[0,0.46875],"type":"VEC2"},{"bufferView":19,"componentType":5123,"count":648,"max":[457],"min":[0],"type":"SCALAR"},{"bufferView":20,"componentType":5126,"count":24,"max":[0.21875,0.0625,0.09375],"min":[0.03125,-0.75,-0.09375],"type":"VEC3"},{"bufferView":21,"componentType":5126,"count":24,"max":[1,1,1],"min":[-1,-1,-1],"type":"VEC3"},{"bufferView":22,"componentType":5126,"count":24,"max":[0.4765625,1],"min":[0,0.5703125],"type":"VEC2"},{"bufferView":23,"componentType":5123,"count":36,"max":[23],"min":[0],"type":"SCALAR"},{"bufferView":24,"componentType":5126,"count":24,"max":[0.09375,0,0.09375],"min":[-0.09375,-0.5625,-0.09375],"type":"VEC3"},{"bufferView":25,"componentType":5126,"count":24,"max":[1,1,1],"min":[-1,-1,-1],"type":"VEC3"},{"bufferView":26,"componentType":5126,"count":24,"max":[0.3984375,0.921875],"min":[0.046875,0.5234375],"type":"VEC2"},{"bufferView":27,"componentType":5123,"count":36,"max":[23],"min":[0],"type":"SCALAR"},{"bufferView":28,"componentType":5126,"count":24,"max":[0.15625,0.0625,0.46875],"min":[-0.15625,-0.0625,0.03125],"type":"VEC3"},{"bufferView":29,"componentType":5126,"count":24,"max":[1,1,1],"min":[-1,-1,-1],"type":"VEC3"},{"bufferView":30,"componentType":5126,"count":24,"max":[0.484375,1],"min":[0.078125,0.609375],"type":"VEC2"},{"bufferView":31,"componentType":5123,"count":36,"max":[23],"min":[0],"type":"SCALAR"},{"bufferView":32,"componentType":5126,"count":24,"max":[0.15625,0,0.15625],"min":[-0.15625,-0.9375,-0.21875],"type":"VEC3"},{"bufferView":33,"componentType":5126,"count":24,"max":[1,1,1],"min":[-1,-1,-1],"type":"VEC3"},{"bufferView":34,"componentType":5126,"count":24,"max":[0.3984375,1],"min":[0,0.640625],"type":"VEC2"},{"bufferView":35,"componentType":5123,"count":36,"max":[23],"min":[0],"type":"SCALAR"},{"bufferView":36,"componentType":5126,"count":24,"max":[0.15625,0,0.15625],"min":[-0.15625,-0.75,-0.15625],"type":"VEC3"},{"bufferView":37,"componentType":5126,"count":24,"max":[1,1,1],"min":[-1,-1,-1],"type":"VEC3"},{"bufferView":38,"componentType":5126,"count":24,"max":[0.2421875,0.890625],"min":[0,0.546875],"type":"VEC2"},{"bufferView":39,"componentType":5123,"count":36,"max":[23],"min":[0],"type":"SCALAR"},{"bufferView":40,"componentType":5126,"count":24,"max":[0.15625,0,0.46875],"min":[-0.15625,-0.1875,-0.15625],"type":"VEC3"},{"bufferView":41,"componentType":5126,"count":24,"max":[1,1,1],"min":[-1,-1,-1],"type":"VEC3"},{"bufferView":42,"componentType":5126,"count":24,"max":[0.4609375,0.9375],"min":[0.078125,0.546875],"type":"VEC2"},{"bufferView":43,"componentType":5123,"count":36,"max":[23],"min":[0],"type":"SCALAR"},{"bufferView":44,"componentType":5126,"count":24,"max":[0.21875,0.0625,0.09375],"min":[0.03125,-0.75,-0.09375],"type":"VEC3"},{"bufferView":45,"componentType":5126,"count":24,"max":[1,1,1],"min":[-1,-1,-1],"type":"VEC3"},{"bufferView":46,"componentType":5126,"count":24,"max":[0.4765625,0.875],"min":[0.1015625,0.5234375],"type":"VEC2"},{"bufferView":47,"componentType":5123,"count":36,"max":[23],"min":[0],"type":"SCALAR"},{"bufferView":48,"componentType":5126,"count":24,"max":[0.09375,0,0.09375],"min":[-0.09375,-0.5625,-0.09375],"type":"VEC3"},{"bufferView":49,"componentType":5126,"count":24,"max":[1,1,1],"min":[-1,-1,-1],"type":"VEC3"},{"bufferView":50,"componentType":5126,"count":24,"max":[0.4296875,1],"min":[0.1328125,0.5234375],"type":"VEC2"},{"bufferView":51,"componentType":5123,"count":36,"max":[23],"min":[0],"type":"SCALAR"},{"bufferView":52,"componentType":5126,"count":24,"max":[0.15625,0.0625,0.46875],"min":[-0.15625,-0.0625,0.03125],"type":"VEC3"},{"bufferView":53,"componentType":5126,"count":24,"max":[1,1,1],"min":[-1,-1,-1],"type":"VEC3"},{"bufferView":54,"componentType":5126,"count":24,"max":[0.4921875,0.9609375],"min":[0,0.53125],"type":"VEC2"},{"bufferView":55,"componentType":5123,"count":36,"max":[23],"min":[0],"type":"SCALAR"},{"bufferView":56,"componentType":5126,"count":24,"max":[0.15625,0,0.15625],"min":[-0.15625,-0.9375,-0.21875],"type":"VEC3"},{"bufferView":57,"componentType":5126,"count":24,"max":[1,1,1],"min":[-1,-1,-1],"type":"VEC3"},{"bufferView":58,"componentType":5126,"count":24,"max":[0.40625,1],"min":[0,0.5859375],"type":"VEC2"},{"bufferView":59,"componentType":5123,"count":36,"max":[23],"min":[0],"type":"SCALAR"},{"bufferView":60,"componentType":5126,"count":24,"max":[0.15625,0,0.15625],"min":[-0.15625,-0.75,-0.15625],"type":"VEC3"},{"bufferView":61,"componentType":5126,"count":24,"max":[1,1,1],"min":[-1,-1,-1],"type":"VEC3"},{"bufferView":62,"componentType":5126,"count":24,"max":[0.4609375,0.921875],"min":[0.1640625,0.546875],"type":"VEC2"},{"bufferView":63,"componentType":5123,"count":36,"max":[23],"min":[0],"type":"SCALAR"},{"bufferView":64,"componentType":5126,"count":24,"max":[0.15625,0,0.46875],"min":[-0.15625,-0.1875,-0.15625],"type":"VEC3"},{"bufferView":65,"componentType":5126,"count":24,"max":[1,1,1],"min":[-1,-1,-1],"type":"VEC3"},{"bufferView":66,"componentType":5126,"count":24,"max":[0.4609375,0.90625],"min":[0.0390625,0.546875],"type":"VEC2"},{"bufferView":67,"componentType":5123,"count":36,"max":[23],"min":[0],"type":"SCALAR"}],"materials":[{"pbrMetallicRoughness":{"metallicFactor":0,"roughnessFactor":1,"baseColorTexture":{"index":0}},"alphaMode":"MASK","alphaCutoff":0.05,"doubleSided":true}],"textures":[{"sampler":0,"source":0,"name":"texture.png"}],"samplers":[{"magFilter":9728,"minFilter":9728,"wrapS":33071,"wrapT":33071}],"images":[{"mimeType":"image/png","uri":"data:image/png;base64,"}],"meshes":[{"primitives":[{"mode":4,"attributes":{"POSITION":0,"NORMAL":1,"TEXCOORD_0":2},"indices":3,"material":0}]},{"primitives":[{"mode":4,"attributes":{"POSITION":4,"NORMAL":5,"TEXCOORD_0":6},"indices":7,"material":0}]},{"primitives":[{"mode":4,"attributes":{"POSITION":8,"NORMAL":9,"TEXCOORD_0":10},"indices":11,"material":0}]},{"primitives":[{"mode":4,"attributes":{"POSITION":12,"NORMAL":13,"TEXCOORD_0":14},"indices":15,"material":0}]},{"primitives":[{"mode":4,"attributes":{"POSITION":16,"NORMAL":17,"TEXCOORD_0":18},"indices":19,"material":0}]},{"primitives":[{"mode":4,"attributes":{"POSITION":20,"NORMAL":21,"TEXCOORD_0":22},"indices":23,"material":0}]},{"primitives":[{"mode":4,"attributes":{"POSITION":24,"NORMAL":25,"TEXCOORD_0":26},"indices":27,"material":0}]},{"primitives":[{"mode":4,"attributes":{"POSITION":28,"NORMAL":29,"TEXCOORD_0":30},"indices":31,"material":0}]},{"primitives":[{"mode":4,"attributes":{"POSITION":32,"NORMAL":33,"TEXCOORD_0":34},"indices":35,"material":0}]},{"primitives":[{"mode":4,"attributes":{"POSITION":36,"NORMAL":37,"TEXCOORD_0":38},"indices":39,"material":0}]},{"primitives":[{"mode":4,"attributes":{"POSITION":40,"NORMAL":41,"TEXCOORD_0":42},"indices":43,"material":0}]},{"primitives":[{"mode":4,"attributes":{"POSITION":44,"NORMAL":45,"TEXCOORD_0":46},"indices":47,"material":0}]},{"primitives":[{"mode":4,"attributes":{"POSITION":48,"NORMAL":49,"TEXCOORD_0":50},"indices":51,"material":0}]},{"primitives":[{"mode":4,"attributes":{"POSITION":52,"NORMAL":53,"TEXCOORD_0":54},"indices":55,"material":0}]},{"primitives":[{"mode":4,"attributes":{"POSITION":56,"NORMAL":57,"TEXCOORD_0":58},"indices":59,"material":0}]},{"primitives":[{"mode":4,"attributes":{"POSITION":60,"NORMAL":61,"TEXCOORD_0":62},"indices":63,"material":0}]},{"primitives":[{"mode":4,"attributes":{"POSITION":64,"NORMAL":65,"TEXCOORD_0":66},"indices":67,"material":0}]}]}