{"asset":{"version":"2.0","generator":"Blockbench 4.12.6 glTF exporter"},"scenes":[{"nodes":[26],"name":"blockbench_export"}],"scene":0,"nodes":[{"name":"pillar","mesh":0},{"name":"pillar","mesh":1},{"name":"pillar","mesh":2},{"name":"outerdecor","children":[0,1,2]},{"translation":[0,0.5,0],"name":"cuboid","mesh":3},{"name":"pillar","mesh":4},{"name":"pillar","mesh":5},{"name":"pillar","mesh":6},{"name":"cube","mesh":7},{"name":"cube","mesh":8},{"name":"cube","mesh":9},{"name":"cube","mesh":10},{"name":"cube","mesh":11},{"name":"cube","mesh":12},{"name":"cube","mesh":13},{"name":"cube","mesh":14},{"name":"cube","mesh":15},{"name":"cube","mesh":16},{"name":"cuboid","mesh":17},{"name":"cube","mesh":18},{"name":"main","children":[3,4,5,6,7,8,9,10,11,12,13,14,15,16,17,18,19]},{"translation":[0,0.5,0],"name":"second","mesh":19},{"name":"pillar","mesh":20},{"name":"pillar","mesh":21},{"name":"pillar","mesh":22},{"name":"thingy","children":[21,22,23,24]},{"children":[20,25]}],"bufferViews":[{"buffer":0,"byteOffset":0,"byteLength":288,"target":34962,"byteStride":12},{"buffer":0,"byteOffset":288,"byteLength":288,"target":34962,"byteStride":12},{"buffer":0,"byteOffset":576,"byteLength":192,"target":34962,"byteStride":8},{"buffer":0,"byteOffset":768,"byteLength":72,"target":34963},{"buffer":0,"byteOffset":840,"byteLength":288,"target":34962,"byteStride":12},{"buffer":0,"byteOffset":1128,"byteLength":288,"target":34962,"byteStride":12},{"buffer":0,"byteOffset":1416,"byteLength":192,"target":34962,"byteStride":8},{"buffer":0,"byteOffset":1608,"byteLength":72,"target":34963},{"buffer":0,"byteOffset":1680,"byteLength":288,"target":34962,"byteStride":12},{"buffer":0,"byteOffset":1968,"byteLength":288,"target":34962,"byteStride":12},{"buffer":0,"byteOffset":2256,"byteLength":192,"target":34962,"byteStride":8},{"buffer":0,"byteOffset":2448,"byteLength":72,"target":34963},{"buffer":0,"byteOffset":2520,"byteLength":12384,"target":34962,"byteStride":12},{"buffer":0,"byteOffset":14904,"byteLength":12384,"target":34962,"byteStride":12},{"buffer":0,"byteOffset":27288,"byteLength":8256,"target":34962,"byteStride":8},{"buffer":0,"byteOffset":35544,"byteLength":3096,"target":34963},{"buffer":0,"byteOffset":38640,"byteLength":288,"target":34962,"byteStride":12},{"buffer":0,"byteOffset":38928,"byteLength":288,"target":34962,"byteStride":12},{"buffer":0,"byteOffset":39216,"byteLength":192,"target":34962,"byteStride":8},{"buffer":0,"byteOffset":39408,"byteLength":72,"target":34963},{"buffer":0,"byteOffset":39480,"byteLength":288,"target":34962,"byteStride":12},{"buffer":0,"byteOffset":39768,"byteLength":288,"target":34962,"byteStride":12},{"buffer":0,"byteOffset":40056,"byteLength":192,"target":34962,"byteStride":8},{"buffer":0,"byteOffset":40248,"byteLength":72,"target":34963},{"buffer":0,"byteOffset":40320,"byteLength":288,"target":34962,"byteStride":12},{"buffer":0,"byteOffset":40608,"byteLength":288,"target":34962,"byteStride":12},{"buffer":0,"byteOffset":40896,"byteLength":192,"target":34962,"byteStride":8},{"buffer":0,"byteOffset":41088,"byteLength":72,"target":34963},{"buffer":0,"byteOffset":41160,"byteLength":288,"target":34962,"byteStride":12},{"buffer":0,"byteOffset":41448,"byteLength":288,"target":34962,"byteStride":12},{"buffer":0,"byteOffset":41736,"byteLength":192,"target":34962,"byteStride":8},{"buffer":0,"byteOffset":41928,"byteLength":72,"target":34963},{"buffer":0,"byteOffset":42000,"byteLength":288,"target":34962,"byteStride":12},{"buffer":0,"byteOffset":42288,"byteLength":288,"target":34962,"byteStride":12},{"buffer":0,"byteOffset":42576,"byteLength":192,"target":34962,"byteStride":8},{"buffer":0,"byteOffset":42768,"byteLength":72,"target":34963},{"buffer":0,"byteOffset":42840,"byteLength":288,"target":34962,"byteStride":12},{"buffer":0,"byteOffset":43128,"byteLength":288,"target":34962,"byteStride":12},{"buffer":0,"byteOffset":43416,"byteLength":192,"target":34962,"byteStride":8},{"buffer":0,"byteOffset":43608,"byteLength":72,"target":34963},{"buffer":0,"byteOffset":43680,"byteLength":288,"target":34962,"byteStride":12},{"buffer":0,"byteOffset":43968,"byteLength":288,"target":34962,"byteStride":12},{"buffer":0,"byteOffset":44256,"byteLength":192,"target":34962,"byteStride":8},{"buffer":0,"byteOffset":44448,"byteLength":72,"target":34963},{"buffer":0,"byteOffset":44520,"byteLength":288,"target":34962,"byteStride":12},{"buffer":0,"byteOffset":44808,"byteLength":288,"target":34962,"byteStride":12},{"buffer":0,"byteOffset":45096,"byteLength":192,"target":34962,"byteStride":8},{"buffer":0,"byteOffset":45288,"byteLength":72,"target":34963},{"buffer":0,"byteOffset":45360,"byteLength":288,"target":34962,"byteStride":12},{"buffer":0,"byteOffset":45648,"byteLength":288,"target":34962,"byteStride":12},{"buffer":0,"byteOffset":45936,"byteLength":192,"target":34962,"byteStride":8},{"buffer":0,"byteOffset":46128,"byteLength":72,"target":34963},{"buffer":0,"byteOffset":46200,"byteLength":288,"target":34962,"byteStride":12},{"buffer":0,"byteOffset":46488,"byteLength":288,"target":34962,"byteStride":12},{"buffer":0,"byteOffset":46776,"byteLength":192,"target":34962,"byteStride":8},{"buffer":0,"byteOffset":46968,"byteLength":72,"target":34963},{"buffer":0,"byteOffset":47040,"byteLength":288,"target":34962,"byteStride":12},{"buffer":0,"byteOffset":47328,"byteLength":288,"target":34962,"byteStride":12},{"buffer":0,"byteOffset":47616,"byteLength":192,"target":34962,"byteStride":8},{"buffer":0,"byteOffset":47808,"byteLength":72,"target":34963},{"buffer":0,"byteOffset":47880,"byteLength":288,"target":34962,"byteStride":12},{"buffer":0,"byteOffset":48168,"byteLength":288,"target":34962,"byteStride":12},{"buffer":0,"byteOffset":48456,"byteLength":192,"target":34962,"byteStride":8},{"buffer":0,"byteOffset":48648,"byteLength":72,"target":34963},{"buffer":0,"byteOffset":48720,"byteLength":1248,"target":34962,"byteStride":12},{"buffer":0,"byteOffset":49968,"byteLength":1248,"target":34962,"byteStride":12},{"buffer":0,"byteOffset":51216,"byteLength":832,"target":34962,"byteStride":8},{"buffer":0,"byteOffset":52048,"byteLength":312,"target":34963},{"buffer":0,"byteOffset":52360,"byteLength":1248,"target":34962,"byteStride":12},{"buffer":0,"byteOffset":53608,"byteLength":1248,"target":34962,"byteStride":12},{"buffer":0,"byteOffset":54856,"byteLength":832,"target":34962,"byteStride":8},{"buffer":0,"byteOffset":55688,"byteLength":312,"target":34963},{"buffer":0,"byteOffset":56000,"byteLength":288,"target":34962,"byteStride":12},{"buffer":0,"byteOffset":56288,"byteLength":288,"target":34962,"byteStride":12},{"buffer":0,"byteOffset":56576,"byteLength":192,"target":34962,"byteStride":8},{"buffer":0,"byteOffset":56768,"byteLength":72,"target":34963},{"buffer":0,"byteOffset":56840,"byteLength":12384,"target":34962,"byteStride":12},{"buffer":0,"byteOffset":69224,"byteLength":12384,"target":34962,"byteStride":12},{"buffer":0,"byteOffset":81608,"byteLength":8256,"target":34962,"byteStride":8},{"buffer":0,"byteOffset":89864,"byteLength":3096,"target":34963},{"buffer":0,"byteOffset":92960,"byteLength":288,"target":34962,"byteStride":12},{"buffer":0,"byteOffset":93248,"byteLength":288,"target":34962,"byteStride":12},{"buffer":0,"byteOffset":93536,"byteLength":192,"target":34962,"byteStride":8},{"buffer":0,"byteOffset":93728,"byteLength":72,"target":34963},{"buffer":0,"byteOffset":93800,"byteLength":288,"target":34962,"byteStride":12},{"buffer":0,"byteOffset":94088,"byteLength":288,"target":34962,"byteStride":12},{"buffer":0,"byteOffset":94376,"byteLength":192,"target":34962,"byteStride":8},{"buffer":0,"byteOffset":94568,"byteLength":72,"target":34963},{"buffer":0,"byteOffset":94640,"byteLength":288,"target":34962,"byteStride":12},{"buffer":0,"byteOffset":94928,"byteLength":288,"target":34962,"byteStride":12},{"buffer":0,"byteOffset":95216,"byteLength":192,"target":34962,"byteStride":8},{"buffer":0,"byteOffset":95408,"byteLength":72,"target":34963}],"buffers":[{"byteLength":95480,"uri":"data:application/octet-stream;base64,"}],"accessors":[{"bufferView":0,"componentType":5126,"count":24,"max":[-0.09375,0.1875,0.53125],"min":[-0.15625,0,0.46875],"type":"VEC3"},{"bufferView":1,"componentType":5126,"count":24,"max":[1,1,1],"min":[-1,-1,-1],"type":"VEC3"},{"bufferView":2,"componentType":5126,"count":24,"max":[0.15625,0.1484375],"min":[0.01953125,0.0390625],"type":"VEC2"},{"bufferView":3,"componentType":5123,"count":36,"max":[23],"min":[0],"type":"SCALAR"},{"bufferView":4,"componentType":5126,"count":24,"max":[0.15625,0.1875,0.53125],"min":[0.09375,0,0.46875],"type":"VEC3"},{"bufferView":5,"componentType":5126,"count":24,"max":[1,1,1],"min":[-1,-1,-1],"type":"VEC3"},{"bufferView":6,"componentType":5126,"count":24,"max":[0.15625,0.1484375],"min":[0.02734375,0.046875],"type":"VEC2"},{"bufferView":7,"componentType":5123,"count":36,"max":[23],"min":[0],"type":"SCALAR"},{"bufferView":8,"componentType":5126,"count":24,"max":[0.15625,0.25,0.53125],"min":[-0.15625,0.1875,0.46875],"type":"VEC3"},{"bufferView":9,"componentType":5126,"count":24,"max":[1,1,1],"min":[-1,-1,-1],"type":"VEC3"},{"bufferView":10,"componentType":5126,"count":24,"max":[0.15625,0.1328125],"min":[0.01953125,0.0546875],"type":"VEC2"},{"bufferView":11,"componentType":5123,"count":36,"max":[23],"min":[0],"type":"SCALAR"},{"bufferView":12,"componentType":5126,"count":1032,"max":[0.69887375831604,3.375,0.69887375831604],"min":[-0.69887375831604,-0.5,-0.69887375831604],"type":"VEC3"},{"bufferView":13,"componentType":5126,"count":1032,"max":[1,1,1],"min":[-1,-1,-1],"type":"VEC3"},{"bufferView":14,"componentType":5126,"count":1032,"max":[0.51953125,0.4765625],"min":[0.0011441406095400453,0],"type":"VEC2"},{"bufferView":15,"componentType":5123,"count":1548,"max":[1031],"min":[0],"type":"SCALAR"},{"bufferView":16,"componentType":5126,"count":24,"max":[-0.59375,0.25,0.65625],"min":[-0.65625,0,0.59375],"type":"VEC3"},{"bufferView":17,"componentType":5126,"count":24,"max":[1,1,1],"min":[-1,-1,-1],"type":"VEC3"},{"bufferView":18,"componentType":5126,"count":24,"max":[0.07421875,0.12109375],"min":[0.05078125,0.015625],"type":"VEC2"},{"bufferView":19,"componentType":5123,"count":36,"max":[23],"min":[0],"type":"SCALAR"},{"bufferView":20,"componentType":5126,"count":24,"max":[0.65625,0.25,0.65625],"min":[0.59375,0,0.59375],"type":"VEC3"},{"bufferView":21,"componentType":5126,"count":24,"max":[1,1,1],"min":[-1,-1,-1],"type":"VEC3"},{"bufferView":22,"componentType":5126,"count":24,"max":[0.07421875,0.1484375],"min":[0.0546875,0.10546875],"type":"VEC2"},{"bufferView":23,"componentType":5123,"count":36,"max":[23],"min":[0],"type":"SCALAR"},{"bufferView":24,"componentType":5126,"count":24,"max":[0.65625,0.25,-0.59375],"min":[0.59375,0,-0.65625],"type":"VEC3"},{"bufferView":25,"componentType":5126,"count":24,"max":[1,1,1],"min":[-1,-1,-1],"type":"VEC3"},{"bufferView":26,"componentType":5126,"count":24,"max":[0.1328125,0.15234375],"min":[0.01953125,0.08203125],"type":"VEC2"},{"bufferView":27,"componentType":5123,"count":36,"max":[23],"min":[0],"type":"SCALAR"},{"bufferView":28,"componentType":5126,"count":24,"max":[-0.375,3.875,0.4375],"min":[-0.4375,3.8125,0.375],"type":"VEC3"},{"bufferView":29,"componentType":5126,"count":24,"max":[1,1,1],"min":[-1,-1,-1],"type":"VEC3"},{"bufferView":30,"componentType":5126,"count":24,"max":[0.15234375,0.15234375],"min":[0.02734375,0.09375],"type":"VEC2"},{"bufferView":31,"componentType":5123,"count":36,"max":[23],"min":[0],"type":"SCALAR"},{"bufferView":32,"componentType":5126,"count":24,"max":[-0.375,3.9375,0.3125],"min":[-0.4375,3.8125,0.25],"type":"VEC3"},{"bufferView":33,"componentType":5126,"count":24,"max":[1,1,1],"min":[-1,-1,-1],"type":"VEC3"},{"bufferView":34,"componentType":5126,"count":24,"max":[0.15234375,0.15234375],"min":[0.14453125,0.00390625],"type":"VEC2"},{"bufferView":35,"componentType":5123,"count":36,"max":[23],"min":[0],"type":"SCALAR"},{"bufferView":36,"componentType":5126,"count":24,"max":[-0.375,3.9375,0.1875],"min":[-0.4375,3.8125,0.125],"type":"VEC3"},{"bufferView":37,"componentType":5126,"count":24,"max":[1,1,1],"min":[-1,-1,-1],"type":"VEC3"},{"bufferView":38,"componentType":5126,"count":24,"max":[0.15234375,0.15234375],"min":[0.125,0.02734375],"type":"VEC2"},{"bufferView":39,"componentType":5123,"count":36,"max":[23],"min":[0],"type":"SCALAR"},{"bufferView":40,"componentType":5126,"count":24,"max":[-0.375,3.9375,-0.0625],"min":[-0.4375,3.8125,-0.125],"type":"VEC3"},{"bufferView":41,"componentType":5126,"count":24,"max":[1,1,1],"min":[-1,-1,-1],"type":"VEC3"},{"bufferView":42,"componentType":5126,"count":24,"max":[0.15234375,0.15625],"min":[0.06640625,0.078125],"type":"VEC2"},{"bufferView":43,"componentType":5123,"count":36,"max":[23],"min":[0],"type":"SCALAR"},{"bufferView":44,"componentType":5126,"count":24,"max":[-0.375,3.875,0.0625],"min":[-0.4375,3.8125,0],"type":"VEC3"},{"bufferView":45,"componentType":5126,"count":24,"max":[1,1,1],"min":[-1,-1,-1],"type":"VEC3"},{"bufferView":46,"componentType":5126,"count":24,"max":[0.15625,0.15234375],"min":[0.13671875,0.00390625],"type":"VEC2"},{"bufferView":47,"componentType":5123,"count":36,"max":[23],"min":[0],"type":"SCALAR"},{"bufferView":48,"componentType":5126,"count":24,"max":[-0.375,3.875,-0.1875],"min":[-0.4375,3.8125,-0.25],"type":"VEC3"},{"bufferView":49,"componentType":5126,"count":24,"max":[1,1,1],"min":[-1,-1,-1],"type":"VEC3"},{"bufferView":50,"componentType":5126,"count":24,"max":[0.15625,0.0390625],"min":[0.15234375,0.015625],"type":"VEC2"},{"bufferView":51,"componentType":5123,"count":36,"max":[23],"min":[0],"type":"SCALAR"},{"bufferView":52,"componentType":5126,"count":24,"max":[0.0625,3.9375,0.0625],"min":[0,3.8125,0],"type":"VEC3"},{"bufferView":53,"componentType":5126,"count":24,"max":[1,1,1],"min":[-1,-1,-1],"type":"VEC3"},{"bufferView":54,"componentType":5126,"count":24,"max":[0.15234375,0.15234375],"min":[0.04296875,0.0234375],"type":"VEC2"},{"bufferView":55,"componentType":5123,"count":36,"max":[23],"min":[0],"type":"SCALAR"},{"bufferView":56,"componentType":5126,"count":24,"max":[0.1875,3.9375,0.0625],"min":[0.125,3.8125,0],"type":"VEC3"},{"bufferView":57,"componentType":5126,"count":24,"max":[1,1,1],"min":[-1,-1,-1],"type":"VEC3"},{"bufferView":58,"componentType":5126,"count":24,"max":[0.15234375,0.15234375],"min":[0.0703125,0.0625],"type":"VEC2"},{"bufferView":59,"componentType":5123,"count":36,"max":[23],"min":[0],"type":"SCALAR"},{"bufferView":60,"componentType":5126,"count":24,"max":[0.1875,4,0.0625],"min":[0,3.9375,0],"type":"VEC3"},{"bufferView":61,"componentType":5126,"count":24,"max":[1,1,1],"min":[-1,-1,-1],"type":"VEC3"},{"bufferView":62,"componentType":5126,"count":24,"max":[0.15234375,0.15234375],"min":[0.0390625,0.03515625],"type":"VEC2"},{"bufferView":63,"componentType":5123,"count":36,"max":[23],"min":[0],"type":"SCALAR"},{"bufferView":64,"componentType":5126,"count":104,"max":[0.3970968723297119,4.03125,0.022096874192357063],"min":[-0.2720968723297119,3.8125,-0.3970968723297119],"type":"VEC3"},{"bufferView":65,"componentType":5126,"count":104,"max":[1,1,1],"min":[-1,-1,-1],"type":"VEC3"},{"bufferView":66,"componentType":5126,"count":104,"max":[0.2845843732357025,0.265625],"min":[0.015625,0.00390625],"type":"VEC2"},{"bufferView":67,"componentType":5123,"count":156,"max":[103],"min":[0],"type":"SCALAR"},{"bufferView":68,"componentType":5126,"count":104,"max":[0.4908468723297119,4.21875,-0.2591531276702881],"min":[0.2591531276702881,3.6875,-0.4908468723297119],"type":"VEC3"},{"bufferView":69,"componentType":5126,"count":104,"max":[1,1,1],"min":[-1,-1,-1],"type":"VEC3"},{"bufferView":70,"componentType":5126,"count":104,"max":[0.1484375,0.123046875],"min":[0.039634376764297485,0.00390625],"type":"VEC2"},{"bufferView":71,"componentType":5123,"count":156,"max":[103],"min":[0],"type":"SCALAR"},{"bufferView":72,"componentType":5126,"count":24,"max":[0.0625,0.125,0.0625],"min":[-0.0625,0,-0.0625],"type":"VEC3"},{"bufferView":73,"componentType":5126,"count":24,"max":[1,1,1],"min":[-1,-1,-1],"type":"VEC3"},{"bufferView":74,"componentType":5126,"count":24,"max":[0.0078125,0.0078125],"min":[0,0],"type":"VEC2"},{"bufferView":75,"componentType":5123,"count":36,"max":[23],"min":[0],"type":"SCALAR"},{"bufferView":76,"componentType":5126,"count":1032,"max":[-0.2866118848323822,3.4375,-0.2866118848323822],"min":[-0.7133881449699402,-0.5,-0.7133881449699402],"type":"VEC3"},{"bufferView":77,"componentType":5126,"count":1032,"max":[1,1,1],"min":[-1,-1,-1],"type":"VEC3"},{"bufferView":78,"componentType":5126,"count":1032,"max":[0.296875,0.28125],"min":[0.0078125,0.00390625],"type":"VEC2"},{"bufferView":79,"componentType":5123,"count":1548,"max":[1031],"min":[0],"type":"SCALAR"},{"bufferView":80,"componentType":5126,"count":24,"max":[-0.65625,3.875,-0.65625],"min":[-0.71875,0,-0.71875],"type":"VEC3"},{"bufferView":81,"componentType":5126,"count":24,"max":[1,1,1],"min":[-1,-1,-1],"type":"VEC3"},{"bufferView":82,"componentType":5126,"count":24,"max":[0.15625,0.6328125],"min":[0,0.08203125],"type":"VEC2"},{"bufferView":83,"componentType":5123,"count":36,"max":[23],"min":[0],"type":"SCALAR"},{"bufferView":84,"componentType":5126,"count":24,"max":[-0.65625,3.875,-0.28125],"min":[-0.71875,0,-0.34375],"type":"VEC3"},{"bufferView":85,"componentType":5126,"count":24,"max":[1,1,1],"min":[-1,-1,-1],"type":"VEC3"},{"bufferView":86,"componentType":5126,"count":24,"max":[0.15625,0.6328125],"min":[0.015625,0.08984375],"type":"VEC2"},{"bufferView":87,"componentType":5123,"count":36,"max":[23],"min":[0],"type":"SCALAR"},{"bufferView":88,"componentType":5126,"count":24,"max":[-0.28125,3.875,-0.65625],"min":[-0.34375,0,-0.71875],"type":"VEC3"},{"bufferView":89,"componentType":5126,"count":24,"max":[1,1,1],"min":[-1,-1,-1],"type":"VEC3"},{"bufferView":90,"componentType":5126,"count":24,"max":[0.15625,0.6328125],"min":[0.03125,0.09765625],"type":"VEC2"},{"bufferView":91,"componentType":5123,"count":36,"max":[23],"min":[0],"type":"SCALAR"}],"materials":[{"pbrMetallicRoughness":{"metallicFactor":0,"roughnessFactor":1,"baseColorTexture":{"index":0}},"alphaMode":"MASK","alphaCutoff":0.05,"doubleSided":true},{"pbrMetallicRoughness":{"metallicFactor":0,"roughnessFactor":1},"alphaMode":"MASK","alphaCutoff":0.05,"doubleSided":true}],"textures":[{"sampler":0,"source":0,"name":"thingytexture.png"}],"samplers":[{"magFilter":9728,"minFilter":9728,"wrapS":33071,"wrapT":33071}],"images":[{"mimeType":"image/png","uri":"data:image/png;base64,"}],"meshes":[{"primitives":[{"mode":4,"attributes":{"POSITION":0,"NORMAL":1,"TEXCOORD_0":2},"indices":3,"material":0}]},{"primitives":[{"mode":4,"attributes":{"POSITION":4,"NORMAL":5,"TEXCOORD_0":6},"indices":7,"material":0}]},{"primitives":[{"mode":4,"attributes":{"POSITION":8,"NORMAL":9,"TEXCOORD_0":10},"indices":11,"material":0}]},{"primitives":[{"mode":4,"attributes":{"POSITION":12,"NORMAL":13,"TEXCOORD_0":14},"indices":15,"material":0}]},{"primitives":[{"mode":4,"attributes":{"POSITION":16,"NORMAL":17,"TEXCOORD_0":18},"indices":19,"material":0}]},{"primitives":[{"mode":4,"attributes":{"POSITION":20,"NORMAL":21,"TEXCOORD_0":22},"indices":23,"material":0}]},{"primitives":[{"mode":4,"attributes":{"POSITION":24,"NORMAL":25,"TEXCOORD_0":26},"indices":27,"material":0}]},{"primitives":[{"mode":4,"attributes":{"POSITION":28,"NORMAL":29,"TEXCOORD_0":30},"indices":31,"material":0}]},{"primitives":[{"mode":4,"attributes":{"POSITION":32,"NORMAL":33,"TEXCOORD_0":34},"indices":35,"material":0}]},{"primitives":[{"mode":4,"attributes":{"POSITION":36,"NORMAL":37,"TEXCOORD_0":38},"indices":39,"material":0}]},{"primitives":[{"mode":4,"attributes":{"POSITION":40,"NORMAL":41,"TEXCOORD_0":42},"indices":43,"material":0}]},{"primitives":[{"mode":4,"attributes":{"POSITION":44,"NORMAL":45,"TEXCOORD_0":46},"indices":47,"material":0}]},{"primitives":[{"mode":4,"attributes":{"POSITION":48,"NORMAL":49,"TEXCOORD_0":50},"indices":51,"material":0}]},{"primitives":[{"mode":4,"attributes":{"POSITION":52,"NORMAL":53,"TEXCOORD_0":54},"indices":55,"material":0}]},{"primitives":[{"mode":4,"attributes":{"POSITION":56,"NORMAL":57,"TEXCOORD_0":58},"indices":59,"material":0}]},{"primitives":[{"mode":4,"attributes":{"POSITION":60,"NORMAL":61,"TEXCOORD_0":62},"indices":63,"material":0}]},{"primitives":[{"mode":4,"attributes":{"POSITION":64,"NORMAL":65,"TEXCOORD_0":66},"indices":67,"material":0}]},{"primitives":[{"mode":4,"attributes":{"POSITION":68,"NORMAL":69,"TEXCOORD_0":70},"indices":71,"material":0}]},{"primitives":[{"mode":4,"attributes":{"POSITION":72,"NORMAL":73,"TEXCOORD_0":74},"indices":75,"material":1}]},{"primitives":[{"mode":4,"attributes":{"POSITION":76,"NORMAL":77,"TEXCOORD_0":78},"indices":79,"material":0}]},{"primitives":[{"mode":4,"attributes":{"POSITION":80,"NORMAL":81,"TEXCOORD_0":82},"indices":83,"material":0}]},{"primitives":[{"mode":4,"attributes":{"POSITION":84,"NORMAL":85,"TEXCOORD_0":86},"indices":87,"material":0}]},{"primitives":[{"mode":4,"attributes":{"POSITION":88,"NORMAL":89,"TEXCOORD_0":90},"indices":91,"material":0}]}]}